<svg width="32" height="32" viewBox="0 0 32 32" fill="none" xmlns="http://www.w3.org/2000/svg">
<g clip-path="url(#clip0_751_1853)">
<path d="M10.2917 29.4622L7.67309 23.5337L1.51418 21.0157C1.13961 20.8623 0.954591 20.4954 1.01021 20.1384C1.06583 19.7813 1.35981 19.4648 1.78206 19.4363L8.29511 19.0037C8.65153 15.7694 9.52667 12.5604 11.2792 9.79049C13.1941 6.75118 15.9625 4.77645 19.3678 3.53663C20.1271 7.42257 22.9909 10.5758 26.8297 11.8474L28.3768 12.2811C27.084 15.5679 25.0272 18.2206 21.9103 20.0475C19.0624 21.7287 15.7594 22.5698 12.4041 22.9247L11.958 29.2169C11.9296 29.6243 11.622 29.9255 11.2633 29.9858C10.8479 30.0548 10.4745 29.8729 10.2928 29.4611L10.2917 29.4622Z" fill="#CA6627"/>
<path d="M28.9126 10.728L27.9966 10.498C24.328 9.57473 21.5902 6.61537 20.9773 3.01968C23.5573 2.31215 26.1907 1.94962 28.8729 2.00548C29.5596 2.01972 30.0091 2.62867 30 3.25296C29.9852 5.78956 29.6708 8.2451 28.9126 10.7269V10.728ZM26.4393 6.24737C26.4393 5.79942 26.0624 5.43579 25.5982 5.43579C25.1339 5.43579 24.7571 5.79942 24.7571 6.24737C24.7571 6.69533 25.1339 7.05895 25.5982 7.05895C26.0624 7.05895 26.4393 6.69533 26.4393 6.24737Z" fill="#CA6627"/>
</g>
<defs>
<clipPath id="clip0_751_1853">
<rect width="29" height="28" fill="white" transform="translate(1 2)"/>
</clipPath>
</defs>
</svg>
